<?xml version="1.0" encoding="us-ascii" standalone="no"?><svg xmlns="http://www.w3.org/2000/svg" xmlns:xlink="http://www.w3.org/1999/xlink" contentStyleType="text/css" height="1041px" preserveAspectRatio="none" style="width:2138px;height:1041px;background:#FFFFFF;" version="1.1" viewBox="0 0 2138 1041" width="2138px" zoomAndPan="magnify"><defs/><g><text fill="#000000" font-family="sans-serif" font-size="14" font-weight="bold" lengthAdjust="spacing" textLength="210" x="957.25" y="24.5332">Trading System Class Diagram</text><!--class Trader--><g id="elem_Trader"><rect codeLine="9" fill="#F1F1F1" height="294.5313" id="Trader" rx="2.5" ry="2.5" style="stroke:#181818;stroke-width:0.5;" width="330" x="800" y="188.6094"/><ellipse cx="939.25" cy="204.6094" fill="#C2C2C2" rx="11" ry="11" style="stroke:#181818;stroke-width:1.0;"/><path d="M942.0156,200.4844 Q942.1719,200.2656 942.3594,200.1563 Q942.5469,200.0469 942.7656,200.0469 Q943.1406,200.0469 943.375,200.3047 Q943.6094,200.5625 943.6094,201.1719 L943.6094,202.625 Q943.6094,203.2344 943.375,203.5 Q943.1406,203.7656 942.7656,203.7656 Q942.4219,203.7656 942.2188,203.5625 Q942.0156,203.375 941.9063,202.8594 Q941.8594,202.5 941.6719,202.3125 Q941.3438,201.9375 940.7344,201.7188 Q940.125,201.5 939.5,201.5 Q938.7344,201.5 938.1016,201.8281 Q937.4688,202.1563 936.9766,202.9063 Q936.4844,203.6563 936.4844,204.6875 L936.4844,205.7813 Q936.4844,207.0156 937.375,207.8359 Q938.2656,208.6563 939.8594,208.6563 Q940.7969,208.6563 941.4531,208.4063 Q941.8438,208.25 942.2656,207.8125 Q942.5313,207.5469 942.6797,207.4688 Q942.8281,207.3906 943.0313,207.3906 Q943.3594,207.3906 943.6172,207.6484 Q943.875,207.9063 943.875,208.25 Q943.875,208.5938 943.5313,209 Q943.0313,209.5781 942.2344,209.9063 Q941.1563,210.3594 939.8594,210.3594 Q938.3438,210.3594 937.1406,209.7344 Q936.1563,209.2344 935.4688,208.1641 Q934.7813,207.0938 934.7813,205.8125 L934.7813,204.6563 Q934.7813,203.3281 935.3984,202.1797 Q936.0156,201.0313 937.1094,200.4141 Q938.2031,199.7969 939.4375,199.7969 Q940.1719,199.7969 940.8203,199.9609 Q941.4688,200.125 942.0156,200.4844 Z " fill="#000000"/><text fill="#000000" font-family="sans-serif" font-size="14" lengthAdjust="spacing" textLength="43" x="959.75" y="210.3379">Trader</text><line style="stroke:#181818;stroke-width:0.5;" x1="801" x2="1129" y1="220.6094" y2="220.6094"/><text fill="#000000" font-family="sans-serif" font-size="14" lengthAdjust="spacing" textLength="99" x="806" y="239.1426">-id_counter : int</text><text fill="#000000" font-family="sans-serif" font-size="14" lengthAdjust="spacing" textLength="43" x="806" y="256.752">-id : int</text><text fill="#000000" font-family="sans-serif" font-size="14" lengthAdjust="spacing" textLength="87" x="806" y="274.3613">-name : string</text><text fill="#000000" font-family="sans-serif" font-size="14" lengthAdjust="spacing" textLength="147" x="806" y="291.9707">-stocks : vector&lt;Stock&gt;</text><text fill="#000000" font-family="sans-serif" font-size="14" lengthAdjust="spacing" textLength="189" x="806" y="309.5801">-orderFactory : OrderFactory*</text><text fill="#000000" font-family="sans-serif" font-size="14" lengthAdjust="spacing" textLength="157" x="806" y="327.1895">-orderBook : OrderBook*</text><text fill="#000000" font-family="sans-serif" font-size="14" lengthAdjust="spacing" textLength="235" x="806" y="344.7988">-orders : vector&lt;shared_ptr&lt;Order&gt;&gt;</text><line style="stroke:#181818;stroke-width:0.5;" x1="801" x2="1129" y1="351.875" y2="351.875"/><text fill="#000000" font-family="sans-serif" font-size="14" lengthAdjust="spacing" textLength="137" x="806" y="370.4082">+buy(Stock, int) : void</text><text fill="#000000" font-family="sans-serif" font-size="14" lengthAdjust="spacing" textLength="135" x="806" y="388.0176">+sell(Stock, int) : void</text><text fill="#000000" font-family="sans-serif" font-size="14" lengthAdjust="spacing" textLength="229" x="806" y="405.627">+trade(double, double, int, int) : void</text><text fill="#000000" font-family="sans-serif" font-size="14" lengthAdjust="spacing" textLength="78" x="806" y="423.2363">+getID() : int</text><text fill="#000000" font-family="sans-serif" font-size="14" lengthAdjust="spacing" textLength="318" x="806" y="440.8457">+getOrders() : const vector&lt;shared_ptr&lt;Order&gt;&gt;&amp;</text><text fill="#000000" font-family="sans-serif" font-size="14" lengthAdjust="spacing" textLength="150" x="806" y="458.4551">+addStock(Stock) : void</text><text fill="#000000" font-family="sans-serif" font-size="14" lengthAdjust="spacing" textLength="182" x="806" y="476.0645">+getStocks() : vector&lt;Stock&gt;</text></g><!--class TraderException--><g id="elem_TraderException"><rect codeLine="26" fill="#F1F1F1" height="83.2188" id="TraderException" rx="2.5" ry="2.5" style="stroke:#181818;stroke-width:0.5;" width="142" x="894" y="45.6094"/><ellipse cx="911.7" cy="61.6094" fill="#6B6B6B" rx="11" ry="11" style="stroke:#181818;stroke-width:1.0;"/><path d="M913.4188,61.4844 L916.2625,64.9063 Q916.7625,64.9219 917.0125,65.1563 Q917.2625,65.3906 917.2625,65.7656 Q917.2625,66.1406 917.0047,66.375 Q916.7469,66.6094 916.1375,66.6094 L914.2156,66.6094 Q913.6063,66.6094 913.3484,66.375 Q913.0906,66.1406 913.0906,65.75 Q913.0906,65.3906 913.325,65.1563 Q913.5594,64.9219 914.0438,64.9063 L912.3406,62.7969 L910.6063,64.9063 Q911.0906,64.9219 911.325,65.1641 Q911.5594,65.4063 911.5594,65.7656 Q911.5594,66.1406 911.3016,66.375 Q911.0438,66.6094 910.4344,66.6094 L908.5125,66.6094 Q907.9031,66.6094 907.6453,66.375 Q907.3875,66.1406 907.3875,65.75 Q907.3875,65.3906 907.6453,65.1484 Q907.9031,64.9063 908.4031,64.9063 L911.2156,61.4688 L908.5281,58.25 Q908.0281,58.2344 907.7859,58 Q907.5438,57.7656 907.5438,57.3906 Q907.5438,57.0156 907.8016,56.7813 Q908.0594,56.5469 908.6844,56.5469 L910.2469,56.5469 Q910.8563,56.5469 911.1219,56.7813 Q911.3875,57.0156 911.3875,57.3906 Q911.3875,57.6719 911.2156,57.9063 Q911.1063,58.0469 910.7313,58.25 L912.325,60.1563 L913.8719,58.25 Q913.4969,58.0469 913.3875,57.9063 Q913.2313,57.6719 913.2313,57.3906 Q913.2313,57.0156 913.4891,56.7813 Q913.7469,56.5469 914.3563,56.5469 L915.9188,56.5469 Q916.5438,56.5469 916.8016,56.7813 Q917.0594,57.0156 917.0594,57.3906 Q917.0594,57.7656 916.8094,58 Q916.5594,58.2344 916.075,58.25 L913.4188,61.4844 Z " fill="#000000"/><text fill="#000000" font-family="sans-serif" font-size="14" lengthAdjust="spacing" textLength="104" x="926.3" y="67.3379">TraderException</text><line style="stroke:#181818;stroke-width:0.5;" x1="895" x2="1035" y1="77.6094" y2="77.6094"/><text fill="#000000" font-family="sans-serif" font-size="14" lengthAdjust="spacing" textLength="109" x="900" y="96.1426">-message : string</text><line style="stroke:#181818;stroke-width:0.5;" x1="895" x2="1035" y1="103.2188" y2="103.2188"/><text fill="#000000" font-family="sans-serif" font-size="14" lengthAdjust="spacing" textLength="130" x="900" y="121.752">+what() : conts char*</text></g><!--class Stock--><g id="elem_Stock"><rect codeLine="31" fill="#F1F1F1" height="153.6563" id="Stock" rx="2.5" ry="2.5" style="stroke:#181818;stroke-width:0.5;" width="162" x="1234" y="605.1094"/><ellipse cx="1293.25" cy="621.1094" fill="#C2C2C2" rx="11" ry="11" style="stroke:#181818;stroke-width:1.0;"/><path d="M1296.0156,616.9844 Q1296.1719,616.7656 1296.3594,616.6563 Q1296.5469,616.5469 1296.7656,616.5469 Q1297.1406,616.5469 1297.375,616.8047 Q1297.6094,617.0625 1297.6094,617.6719 L1297.6094,619.125 Q1297.6094,619.7344 1297.375,620 Q1297.1406,620.2656 1296.7656,620.2656 Q1296.4219,620.2656 1296.2188,620.0625 Q1296.0156,619.875 1295.9063,619.3594 Q1295.8594,619 1295.6719,618.8125 Q1295.3438,618.4375 1294.7344,618.2188 Q1294.125,618 1293.5,618 Q1292.7344,618 1292.1016,618.3281 Q1291.4688,618.6563 1290.9766,619.4063 Q1290.4844,620.1563 1290.4844,621.1875 L1290.4844,622.2813 Q1290.4844,623.5156 1291.375,624.3359 Q1292.2656,625.1563 1293.8594,625.1563 Q1294.7969,625.1563 1295.4531,624.9063 Q1295.8438,624.75 1296.2656,624.3125 Q1296.5313,624.0469 1296.6797,623.9688 Q1296.8281,623.8906 1297.0313,623.8906 Q1297.3594,623.8906 1297.6172,624.1484 Q1297.875,624.4063 1297.875,624.75 Q1297.875,625.0938 1297.5313,625.5 Q1297.0313,626.0781 1296.2344,626.4063 Q1295.1563,626.8594 1293.8594,626.8594 Q1292.3438,626.8594 1291.1406,626.2344 Q1290.1563,625.7344 1289.4688,624.6641 Q1288.7813,623.5938 1288.7813,622.3125 L1288.7813,621.1563 Q1288.7813,619.8281 1289.3984,618.6797 Q1290.0156,617.5313 1291.1094,616.9141 Q1292.2031,616.2969 1293.4375,616.2969 Q1294.1719,616.2969 1294.8203,616.4609 Q1295.4688,616.625 1296.0156,616.9844 Z " fill="#000000"/><text fill="#000000" font-family="sans-serif" font-size="14" lengthAdjust="spacing" textLength="35" x="1313.75" y="626.8379">Stock</text><line style="stroke:#181818;stroke-width:0.5;" x1="1235" x2="1395" y1="637.1094" y2="637.1094"/><text fill="#000000" font-family="sans-serif" font-size="14" lengthAdjust="spacing" textLength="87" x="1240" y="655.6426">-name : string</text><text fill="#000000" font-family="sans-serif" font-size="14" lengthAdjust="spacing" textLength="91" x="1240" y="673.252">-price : double</text><line style="stroke:#181818;stroke-width:0.5;" x1="1235" x2="1395" y1="680.3281" y2="680.3281"/><text fill="#000000" font-family="sans-serif" font-size="14" lengthAdjust="spacing" textLength="146" x="1240" y="698.8613">+setName(string) : void</text><text fill="#000000" font-family="sans-serif" font-size="14" lengthAdjust="spacing" textLength="150" x="1240" y="716.4707">+setPrice(double) : void</text><text fill="#000000" font-family="sans-serif" font-size="14" lengthAdjust="spacing" textLength="121" x="1240" y="734.0801">+getName() : string</text><text fill="#000000" font-family="sans-serif" font-size="14" lengthAdjust="spacing" textLength="125" x="1240" y="751.6895">+getPrice() : double</text></g><!--class Order--><g id="elem_Order"><rect codeLine="40" fill="#F1F1F1" height="276.9219" id="Order" rx="2.5" ry="2.5" style="stroke:#181818;stroke-width:0.5;" width="225" x="323.5" y="543.6094"/><ellipse cx="413.25" cy="559.6094" fill="#C2C2C2" rx="11" ry="11" style="stroke:#181818;stroke-width:1.0;"/><path d="M416.0156,555.4844 Q416.1719,555.2656 416.3594,555.1563 Q416.5469,555.0469 416.7656,555.0469 Q417.1406,555.0469 417.375,555.3047 Q417.6094,555.5625 417.6094,556.1719 L417.6094,557.625 Q417.6094,558.2344 417.375,558.5 Q417.1406,558.7656 416.7656,558.7656 Q416.4219,558.7656 416.2188,558.5625 Q416.0156,558.375 415.9063,557.8594 Q415.8594,557.5 415.6719,557.3125 Q415.3438,556.9375 414.7344,556.7188 Q414.125,556.5 413.5,556.5 Q412.7344,556.5 412.1016,556.8281 Q411.4688,557.1563 410.9766,557.9063 Q410.4844,558.6563 410.4844,559.6875 L410.4844,560.7813 Q410.4844,562.0156 411.375,562.8359 Q412.2656,563.6563 413.8594,563.6563 Q414.7969,563.6563 415.4531,563.4063 Q415.8438,563.25 416.2656,562.8125 Q416.5313,562.5469 416.6797,562.4688 Q416.8281,562.3906 417.0313,562.3906 Q417.3594,562.3906 417.6172,562.6484 Q417.875,562.9063 417.875,563.25 Q417.875,563.5938 417.5313,564 Q417.0313,564.5781 416.2344,564.9063 Q415.1563,565.3594 413.8594,565.3594 Q412.3438,565.3594 411.1406,564.7344 Q410.1563,564.2344 409.4688,563.1641 Q408.7813,562.0938 408.7813,560.8125 L408.7813,559.6563 Q408.7813,558.3281 409.3984,557.1797 Q410.0156,556.0313 411.1094,555.4141 Q412.2031,554.7969 413.4375,554.7969 Q414.1719,554.7969 414.8203,554.9609 Q415.4688,555.125 416.0156,555.4844 Z " fill="#000000"/><text fill="#000000" font-family="sans-serif" font-size="14" lengthAdjust="spacing" textLength="37" x="433.75" y="565.3379">Order</text><line style="stroke:#181818;stroke-width:0.5;" x1="324.5" x2="547.5" y1="575.6094" y2="575.6094"/><text fill="#000000" font-family="sans-serif" font-size="14" lengthAdjust="spacing" textLength="89" x="329.5" y="594.1426">-trader_id : int</text><text fill="#000000" font-family="sans-serif" font-size="14" lengthAdjust="spacing" textLength="91" x="329.5" y="611.752">-price : double</text><text fill="#000000" font-family="sans-serif" font-size="14" lengthAdjust="spacing" textLength="82" x="329.5" y="629.3613">-quantity : int</text><text fill="#000000" font-family="sans-serif" font-size="14" lengthAdjust="spacing" textLength="119" x="329.5" y="646.9707">-timestamp : time_t</text><text fill="#000000" font-family="sans-serif" font-size="14" lengthAdjust="spacing" textLength="147" x="329.5" y="664.5801">-ordertype : OrderType</text><line style="stroke:#181818;stroke-width:0.5;" x1="324.5" x2="547.5" y1="671.6563" y2="671.6563"/><text fill="#000000" font-family="sans-serif" font-size="14" lengthAdjust="spacing" textLength="154" x="329.5" y="690.1895">+getOrderType() : string</text><text fill="#000000" font-family="sans-serif" font-size="14" lengthAdjust="spacing" textLength="122" x="329.5" y="707.7988">+getTraiderId() : int</text><text fill="#000000" font-family="sans-serif" font-size="14" lengthAdjust="spacing" textLength="125" x="329.5" y="725.4082">+getPrice() : double</text><text fill="#000000" font-family="sans-serif" font-size="14" lengthAdjust="spacing" textLength="118" x="329.5" y="743.0176">+getQuantity() : int</text><text fill="#000000" font-family="sans-serif" font-size="14" lengthAdjust="spacing" textLength="157" x="329.5" y="760.627">+getTimestamp() : time_t</text><text fill="#000000" font-family="sans-serif" font-size="14" lengthAdjust="spacing" textLength="153" x="329.5" y="778.2363">+reduceQuantity() : void</text><text fill="#000000" font-family="sans-serif" font-size="14" lengthAdjust="spacing" textLength="188" x="329.5" y="795.8457">+getOrderType() : OrderType</text><text fill="#000000" font-family="sans-serif" font-size="14" lengthAdjust="spacing" textLength="213" x="329.5" y="813.4551">+setOrderType(OrderType) : void</text></g><!--class OrderType--><g id="elem_OrderType"><rect codeLine="56" fill="#F1F1F1" height="83.2188" id="OrderType" rx="2.5" ry="2.5" style="stroke:#181818;stroke-width:0.5;" width="101" x="208.5" y="916.1094"/><ellipse cx="223.5" cy="932.1094" fill="#ABABAB" rx="11" ry="11" style="stroke:#181818;stroke-width:1.0;"/><path d="M222.3594,932.9063 L222.3594,935.4063 L226.6875,935.4063 L226.6875,934.4844 Q226.6875,933.875 226.9297,933.6094 Q227.1719,933.3438 227.5469,933.3438 Q227.9219,933.3438 228.1563,933.6094 Q228.3906,933.875 228.3906,934.4844 L228.3906,937.1094 L220.3906,937.1094 Q219.7656,937.1094 219.5078,936.875 Q219.25,936.6406 219.25,936.25 Q219.25,935.875 219.5156,935.6406 Q219.7813,935.4063 220.3906,935.4063 L220.6563,935.4063 L220.6563,928.75 L220.3906,928.75 Q219.7656,928.75 219.5078,928.5156 Q219.25,928.2813 219.25,927.8906 Q219.25,927.5156 219.5078,927.2813 Q219.7656,927.0469 220.3906,927.0469 L228.0156,927.0469 L228.0156,929.6406 Q228.0156,930.25 227.7891,930.5078 Q227.5625,930.7656 227.1719,930.7656 Q226.7969,930.7656 226.5625,930.5078 Q226.3281,930.25 226.3281,929.6406 L226.3281,928.75 L222.3594,928.75 L222.3594,931.2031 L223.8438,931.2031 Q223.8438,930.5469 223.9688,930.3594 Q224.2344,929.9531 224.7031,929.9531 Q225.0781,929.9531 225.3125,930.2109 Q225.5469,930.4688 225.5469,931.0781 L225.5469,933.0469 Q225.5469,933.5938 225.4219,933.7813 Q225.1563,934.1719 224.7031,934.1719 Q224.2344,934.1719 223.9688,933.7656 Q223.8438,933.5781 223.8438,932.9063 L222.3594,932.9063 Z " fill="#000000"/><text fill="#000000" font-family="sans-serif" font-size="14" lengthAdjust="spacing" textLength="69" x="237.5" y="937.8379">OrderType</text><line style="stroke:#181818;stroke-width:0.5;" x1="209.5" x2="308.5" y1="948.1094" y2="948.1094"/><text fill="#000000" font-family="sans-serif" font-size="14" lengthAdjust="spacing" textLength="27" x="214.5" y="966.6426">BUY</text><text fill="#000000" font-family="sans-serif" font-size="14" lengthAdjust="spacing" textLength="34" x="214.5" y="984.252">SELL</text><line style="stroke:#181818;stroke-width:0.5;" x1="209.5" x2="308.5" y1="991.3281" y2="991.3281"/></g><!--class OrderBook--><g id="elem_OrderBook"><rect codeLine="61" fill="#F1F1F1" height="153.6563" id="OrderBook" rx="2.5" ry="2.5" style="stroke:#181818;stroke-width:0.5;" width="292" x="546" y="880.6094"/><ellipse cx="653.25" cy="896.6094" fill="#C2C2C2" rx="11" ry="11" style="stroke:#181818;stroke-width:1.0;"/><path d="M656.0156,892.4844 Q656.1719,892.2656 656.3594,892.1563 Q656.5469,892.0469 656.7656,892.0469 Q657.1406,892.0469 657.375,892.3047 Q657.6094,892.5625 657.6094,893.1719 L657.6094,894.625 Q657.6094,895.2344 657.375,895.5 Q657.1406,895.7656 656.7656,895.7656 Q656.4219,895.7656 656.2188,895.5625 Q656.0156,895.375 655.9063,894.8594 Q655.8594,894.5 655.6719,894.3125 Q655.3438,893.9375 654.7344,893.7188 Q654.125,893.5 653.5,893.5 Q652.7344,893.5 652.1016,893.8281 Q651.4688,894.1563 650.9766,894.9063 Q650.4844,895.6563 650.4844,896.6875 L650.4844,897.7813 Q650.4844,899.0156 651.375,899.8359 Q652.2656,900.6563 653.8594,900.6563 Q654.7969,900.6563 655.4531,900.4063 Q655.8438,900.25 656.2656,899.8125 Q656.5313,899.5469 656.6797,899.4688 Q656.8281,899.3906 657.0313,899.3906 Q657.3594,899.3906 657.6172,899.6484 Q657.875,899.9063 657.875,900.25 Q657.875,900.5938 657.5313,901 Q657.0313,901.5781 656.2344,901.9063 Q655.1563,902.3594 653.8594,902.3594 Q652.3438,902.3594 651.1406,901.7344 Q650.1563,901.2344 649.4688,900.1641 Q648.7813,899.0938 648.7813,897.8125 L648.7813,896.6563 Q648.7813,895.3281 649.3984,894.1797 Q650.0156,893.0313 651.1094,892.4141 Q652.2031,891.7969 653.4375,891.7969 Q654.1719,891.7969 654.8203,891.9609 Q655.4688,892.125 656.0156,892.4844 Z " fill="#000000"/><text fill="#000000" font-family="sans-serif" font-size="14" lengthAdjust="spacing" textLength="69" x="673.75" y="902.3379">OrderBook</text><line style="stroke:#181818;stroke-width:0.5;" x1="547" x2="837" y1="912.6094" y2="912.6094"/><text fill="#000000" font-family="sans-serif" font-size="14" lengthAdjust="spacing" textLength="225" x="552" y="931.1426">-book : vector&lt;shared_ptr&lt;Order&gt;&gt;</text><text fill="#000000" font-family="sans-serif" font-size="14" lengthAdjust="spacing" textLength="220" x="552" y="948.752">-strategy : OrderMacthingStrategy*</text><line style="stroke:#181818;stroke-width:0.5;" x1="547" x2="837" y1="955.8281" y2="955.8281"/><text fill="#000000" font-family="sans-serif" font-size="14" lengthAdjust="spacing" textLength="239" x="552" y="974.3613">+addOrder(shared_ptr&lt;Order&gt;) : void</text><text fill="#000000" font-family="sans-serif" font-size="14" lengthAdjust="spacing" textLength="138" x="552" y="991.9707">+matchOrders() : void</text><text fill="#000000" font-family="sans-serif" font-size="14" lengthAdjust="spacing" textLength="149" x="552" y="1009.5801">+printOrderBook(): void</text><text fill="#000000" font-family="sans-serif" font-size="14" lengthAdjust="spacing" textLength="280" x="552" y="1027.1895">+setStrategy(OrderMacthingStrategy*) : void</text></g><!--class OrderMatchingStrategy--><g id="elem_OrderMatchingStrategy"><rect codeLine="70" fill="#F1F1F1" height="65.6094" id="OrderMatchingStrategy" rx="2.5" ry="2.5" style="stroke:#181818;stroke-width:0.5;" width="530" x="669" y="649.1094"/><ellipse cx="856.25" cy="665.1094" fill="#C2C2C2" rx="11" ry="11" style="stroke:#181818;stroke-width:1.0;"/><path d="M859.0156,660.9844 Q859.1719,660.7656 859.3594,660.6563 Q859.5469,660.5469 859.7656,660.5469 Q860.1406,660.5469 860.375,660.8047 Q860.6094,661.0625 860.6094,661.6719 L860.6094,663.125 Q860.6094,663.7344 860.375,664 Q860.1406,664.2656 859.7656,664.2656 Q859.4219,664.2656 859.2188,664.0625 Q859.0156,663.875 858.9063,663.3594 Q858.8594,663 858.6719,662.8125 Q858.3438,662.4375 857.7344,662.2188 Q857.125,662 856.5,662 Q855.7344,662 855.1016,662.3281 Q854.4688,662.6563 853.9766,663.4063 Q853.4844,664.1563 853.4844,665.1875 L853.4844,666.2813 Q853.4844,667.5156 854.375,668.3359 Q855.2656,669.1563 856.8594,669.1563 Q857.7969,669.1563 858.4531,668.9063 Q858.8438,668.75 859.2656,668.3125 Q859.5313,668.0469 859.6797,667.9688 Q859.8281,667.8906 860.0313,667.8906 Q860.3594,667.8906 860.6172,668.1484 Q860.875,668.4063 860.875,668.75 Q860.875,669.0938 860.5313,669.5 Q860.0313,670.0781 859.2344,670.4063 Q858.1563,670.8594 856.8594,670.8594 Q855.3438,670.8594 854.1406,670.2344 Q853.1563,669.7344 852.4688,668.6641 Q851.7813,667.5938 851.7813,666.3125 L851.7813,665.1563 Q851.7813,663.8281 852.3984,662.6797 Q853.0156,661.5313 854.1094,660.9141 Q855.2031,660.2969 856.4375,660.2969 Q857.1719,660.2969 857.8203,660.4609 Q858.4688,660.625 859.0156,660.9844 Z " fill="#000000"/><text fill="#000000" font-family="sans-serif" font-size="14" lengthAdjust="spacing" textLength="147" x="876.75" y="670.8379">OrderMatchingStrategy</text><line style="stroke:#181818;stroke-width:0.5;" x1="670" x2="1198" y1="681.1094" y2="681.1094"/><line style="stroke:#181818;stroke-width:0.5;" x1="670" x2="1198" y1="689.1094" y2="689.1094"/><text fill="#000000" font-family="sans-serif" font-size="14" lengthAdjust="spacing" textLength="518" x="675" y="707.6426">+matchOrders(vector&lt;shared_ptr&lt;Order&gt;&gt;&amp;, vector&lt;shared_ptr&lt;Order&gt;&gt;&amp;) : void</text></g><!--class PriceTimeOrderMatchingStrategy--><g id="elem_PriceTimeOrderMatchingStrategy"><rect codeLine="74" fill="#F1F1F1" height="65.6094" id="PriceTimeOrderMatchingStrategy" rx="2.5" ry="2.5" style="stroke:#181818;stroke-width:0.5;" width="530" x="873" y="924.6094"/><ellipse cx="1028.75" cy="940.6094" fill="#C2C2C2" rx="11" ry="11" style="stroke:#181818;stroke-width:1.0;"/><path d="M1031.5156,936.4844 Q1031.6719,936.2656 1031.8594,936.1563 Q1032.0469,936.0469 1032.2656,936.0469 Q1032.6406,936.0469 1032.875,936.3047 Q1033.1094,936.5625 1033.1094,937.1719 L1033.1094,938.625 Q1033.1094,939.2344 1032.875,939.5 Q1032.6406,939.7656 1032.2656,939.7656 Q1031.9219,939.7656 1031.7188,939.5625 Q1031.5156,939.375 1031.4063,938.8594 Q1031.3594,938.5 1031.1719,938.3125 Q1030.8438,937.9375 1030.2344,937.7188 Q1029.625,937.5 1029,937.5 Q1028.2344,937.5 1027.6016,937.8281 Q1026.9688,938.1563 1026.4766,938.9063 Q1025.9844,939.6563 1025.9844,940.6875 L1025.9844,941.7813 Q1025.9844,943.0156 1026.875,943.8359 Q1027.7656,944.6563 1029.3594,944.6563 Q1030.2969,944.6563 1030.9531,944.4063 Q1031.3438,944.25 1031.7656,943.8125 Q1032.0313,943.5469 1032.1797,943.4688 Q1032.3281,943.3906 1032.5313,943.3906 Q1032.8594,943.3906 1033.1172,943.6484 Q1033.375,943.9063 1033.375,944.25 Q1033.375,944.5938 1033.0313,945 Q1032.5313,945.5781 1031.7344,945.9063 Q1030.6563,946.3594 1029.3594,946.3594 Q1027.8438,946.3594 1026.6406,945.7344 Q1025.6563,945.2344 1024.9688,944.1641 Q1024.2813,943.0938 1024.2813,941.8125 L1024.2813,940.6563 Q1024.2813,939.3281 1024.8984,938.1797 Q1025.5156,937.0313 1026.6094,936.4141 Q1027.7031,935.7969 1028.9375,935.7969 Q1029.6719,935.7969 1030.3203,935.9609 Q1030.9688,936.125 1031.5156,936.4844 Z " fill="#000000"/><text fill="#000000" font-family="sans-serif" font-size="14" lengthAdjust="spacing" textLength="210" x="1049.25" y="946.3379">PriceTimeOrderMatchingStrategy</text><line style="stroke:#181818;stroke-width:0.5;" x1="874" x2="1402" y1="956.6094" y2="956.6094"/><line style="stroke:#181818;stroke-width:0.5;" x1="874" x2="1402" y1="964.6094" y2="964.6094"/><text fill="#000000" font-family="sans-serif" font-size="14" lengthAdjust="spacing" textLength="518" x="879" y="983.1426">+matchOrders(vector&lt;shared_ptr&lt;Order&gt;&gt;&amp;, vector&lt;shared_ptr&lt;Order&gt;&gt;&amp;) : void</text></g><!--class MarketOrder--><g id="elem_MarketOrder"><rect codeLine="78" fill="#F1F1F1" height="65.6094" id="MarketOrder" rx="2.5" ry="2.5" style="stroke:#181818;stroke-width:0.5;" width="166" x="345" y="924.6094"/><ellipse cx="384.3" cy="940.6094" fill="#C2C2C2" rx="11" ry="11" style="stroke:#181818;stroke-width:1.0;"/><path d="M387.0656,936.4844 Q387.2219,936.2656 387.4094,936.1563 Q387.5969,936.0469 387.8156,936.0469 Q388.1906,936.0469 388.425,936.3047 Q388.6594,936.5625 388.6594,937.1719 L388.6594,938.625 Q388.6594,939.2344 388.425,939.5 Q388.1906,939.7656 387.8156,939.7656 Q387.4719,939.7656 387.2688,939.5625 Q387.0656,939.375 386.9563,938.8594 Q386.9094,938.5 386.7219,938.3125 Q386.3938,937.9375 385.7844,937.7188 Q385.175,937.5 384.55,937.5 Q383.7844,937.5 383.1516,937.8281 Q382.5188,938.1563 382.0266,938.9063 Q381.5344,939.6563 381.5344,940.6875 L381.5344,941.7813 Q381.5344,943.0156 382.425,943.8359 Q383.3156,944.6563 384.9094,944.6563 Q385.8469,944.6563 386.5031,944.4063 Q386.8938,944.25 387.3156,943.8125 Q387.5813,943.5469 387.7297,943.4688 Q387.8781,943.3906 388.0813,943.3906 Q388.4094,943.3906 388.6672,943.6484 Q388.925,943.9063 388.925,944.25 Q388.925,944.5938 388.5813,945 Q388.0813,945.5781 387.2844,945.9063 Q386.2063,946.3594 384.9094,946.3594 Q383.3938,946.3594 382.1906,945.7344 Q381.2063,945.2344 380.5188,944.1641 Q379.8313,943.0938 379.8313,941.8125 L379.8313,940.6563 Q379.8313,939.3281 380.4484,938.1797 Q381.0656,937.0313 382.1594,936.4141 Q383.2531,935.7969 384.4875,935.7969 Q385.2219,935.7969 385.8703,935.9609 Q386.5188,936.125 387.0656,936.4844 Z " fill="#000000"/><text fill="#000000" font-family="sans-serif" font-size="14" lengthAdjust="spacing" textLength="80" x="403.7" y="946.3379">MarketOrder</text><line style="stroke:#181818;stroke-width:0.5;" x1="346" x2="510" y1="956.6094" y2="956.6094"/><line style="stroke:#181818;stroke-width:0.5;" x1="346" x2="510" y1="964.6094" y2="964.6094"/><text fill="#000000" font-family="sans-serif" font-size="14" lengthAdjust="spacing" textLength="154" x="351" y="983.1426">+getOrderType() : string</text></g><!--class LimitOrder--><g id="elem_LimitOrder"><rect codeLine="82" fill="#F1F1F1" height="65.6094" id="LimitOrder" rx="2.5" ry="2.5" style="stroke:#181818;stroke-width:0.5;" width="166" x="7" y="924.6094"/><ellipse cx="52.75" cy="940.6094" fill="#C2C2C2" rx="11" ry="11" style="stroke:#181818;stroke-width:1.0;"/><path d="M55.5156,936.4844 Q55.6719,936.2656 55.8594,936.1563 Q56.0469,936.0469 56.2656,936.0469 Q56.6406,936.0469 56.875,936.3047 Q57.1094,936.5625 57.1094,937.1719 L57.1094,938.625 Q57.1094,939.2344 56.875,939.5 Q56.6406,939.7656 56.2656,939.7656 Q55.9219,939.7656 55.7188,939.5625 Q55.5156,939.375 55.4063,938.8594 Q55.3594,938.5 55.1719,938.3125 Q54.8438,937.9375 54.2344,937.7188 Q53.625,937.5 53,937.5 Q52.2344,937.5 51.6016,937.8281 Q50.9688,938.1563 50.4766,938.9063 Q49.9844,939.6563 49.9844,940.6875 L49.9844,941.7813 Q49.9844,943.0156 50.875,943.8359 Q51.7656,944.6563 53.3594,944.6563 Q54.2969,944.6563 54.9531,944.4063 Q55.3438,944.25 55.7656,943.8125 Q56.0313,943.5469 56.1797,943.4688 Q56.3281,943.3906 56.5313,943.3906 Q56.8594,943.3906 57.1172,943.6484 Q57.375,943.9063 57.375,944.25 Q57.375,944.5938 57.0313,945 Q56.5313,945.5781 55.7344,945.9063 Q54.6563,946.3594 53.3594,946.3594 Q51.8438,946.3594 50.6406,945.7344 Q49.6563,945.2344 48.9688,944.1641 Q48.2813,943.0938 48.2813,941.8125 L48.2813,940.6563 Q48.2813,939.3281 48.8984,938.1797 Q49.5156,937.0313 50.6094,936.4141 Q51.7031,935.7969 52.9375,935.7969 Q53.6719,935.7969 54.3203,935.9609 Q54.9688,936.125 55.5156,936.4844 Z " fill="#000000"/><text fill="#000000" font-family="sans-serif" font-size="14" lengthAdjust="spacing" textLength="66" x="73.25" y="946.3379">LimitOrder</text><line style="stroke:#181818;stroke-width:0.5;" x1="8" x2="172" y1="956.6094" y2="956.6094"/><line style="stroke:#181818;stroke-width:0.5;" x1="8" x2="172" y1="964.6094" y2="964.6094"/><text fill="#000000" font-family="sans-serif" font-size="14" lengthAdjust="spacing" textLength="154" x="13" y="983.1426">+getOrderType() : string</text></g><!--class OrderFactory--><g id="elem_OrderFactory"><rect codeLine="86" fill="#F1F1F1" height="65.6094" id="OrderFactory" rx="2.5" ry="2.5" style="stroke:#181818;stroke-width:0.5;" width="329" x="1438.5" y="649.1094"/><ellipse cx="1556.25" cy="665.1094" fill="#C2C2C2" rx="11" ry="11" style="stroke:#181818;stroke-width:1.0;"/><path d="M1559.0156,660.9844 Q1559.1719,660.7656 1559.3594,660.6563 Q1559.5469,660.5469 1559.7656,660.5469 Q1560.1406,660.5469 1560.375,660.8047 Q1560.6094,661.0625 1560.6094,661.6719 L1560.6094,663.125 Q1560.6094,663.7344 1560.375,664 Q1560.1406,664.2656 1559.7656,664.2656 Q1559.4219,664.2656 1559.2188,664.0625 Q1559.0156,663.875 1558.9063,663.3594 Q1558.8594,663 1558.6719,662.8125 Q1558.3438,662.4375 1557.7344,662.2188 Q1557.125,662 1556.5,662 Q1555.7344,662 1555.1016,662.3281 Q1554.4688,662.6563 1553.9766,663.4063 Q1553.4844,664.1563 1553.4844,665.1875 L1553.4844,666.2813 Q1553.4844,667.5156 1554.375,668.3359 Q1555.2656,669.1563 1556.8594,669.1563 Q1557.7969,669.1563 1558.4531,668.9063 Q1558.8438,668.75 1559.2656,668.3125 Q1559.5313,668.0469 1559.6797,667.9688 Q1559.8281,667.8906 1560.0313,667.8906 Q1560.3594,667.8906 1560.6172,668.1484 Q1560.875,668.4063 1560.875,668.75 Q1560.875,669.0938 1560.5313,669.5 Q1560.0313,670.0781 1559.2344,670.4063 Q1558.1563,670.8594 1556.8594,670.8594 Q1555.3438,670.8594 1554.1406,670.2344 Q1553.1563,669.7344 1552.4688,668.6641 Q1551.7813,667.5938 1551.7813,666.3125 L1551.7813,665.1563 Q1551.7813,663.8281 1552.3984,662.6797 Q1553.0156,661.5313 1554.1094,660.9141 Q1555.2031,660.2969 1556.4375,660.2969 Q1557.1719,660.2969 1557.8203,660.4609 Q1558.4688,660.625 1559.0156,660.9844 Z " fill="#000000"/><text fill="#000000" font-family="sans-serif" font-size="14" lengthAdjust="spacing" textLength="85" x="1576.75" y="670.8379">OrderFactory</text><line style="stroke:#181818;stroke-width:0.5;" x1="1439.5" x2="1766.5" y1="681.1094" y2="681.1094"/><line style="stroke:#181818;stroke-width:0.5;" x1="1439.5" x2="1766.5" y1="689.1094" y2="689.1094"/><text fill="#000000" font-family="sans-serif" font-size="14" lengthAdjust="spacing" textLength="317" x="1444.5" y="707.6426">+createOrder(int, double, int) : unique_ptr&lt;Order&gt;</text></g><!--class MarketOrderFactory--><g id="elem_MarketOrderFactory"><rect codeLine="90" fill="#F1F1F1" height="65.6094" id="MarketOrderFactory" rx="2.5" ry="2.5" style="stroke:#181818;stroke-width:0.5;" width="329" x="1802.5" y="924.6094"/><ellipse cx="1898.75" cy="940.6094" fill="#C2C2C2" rx="11" ry="11" style="stroke:#181818;stroke-width:1.0;"/><path d="M1901.5156,936.4844 Q1901.6719,936.2656 1901.8594,936.1563 Q1902.0469,936.0469 1902.2656,936.0469 Q1902.6406,936.0469 1902.875,936.3047 Q1903.1094,936.5625 1903.1094,937.1719 L1903.1094,938.625 Q1903.1094,939.2344 1902.875,939.5 Q1902.6406,939.7656 1902.2656,939.7656 Q1901.9219,939.7656 1901.7188,939.5625 Q1901.5156,939.375 1901.4063,938.8594 Q1901.3594,938.5 1901.1719,938.3125 Q1900.8438,937.9375 1900.2344,937.7188 Q1899.625,937.5 1899,937.5 Q1898.2344,937.5 1897.6016,937.8281 Q1896.9688,938.1563 1896.4766,938.9063 Q1895.9844,939.6563 1895.9844,940.6875 L1895.9844,941.7813 Q1895.9844,943.0156 1896.875,943.8359 Q1897.7656,944.6563 1899.3594,944.6563 Q1900.2969,944.6563 1900.9531,944.4063 Q1901.3438,944.25 1901.7656,943.8125 Q1902.0313,943.5469 1902.1797,943.4688 Q1902.3281,943.3906 1902.5313,943.3906 Q1902.8594,943.3906 1903.1172,943.6484 Q1903.375,943.9063 1903.375,944.25 Q1903.375,944.5938 1903.0313,945 Q1902.5313,945.5781 1901.7344,945.9063 Q1900.6563,946.3594 1899.3594,946.3594 Q1897.8438,946.3594 1896.6406,945.7344 Q1895.6563,945.2344 1894.9688,944.1641 Q1894.2813,943.0938 1894.2813,941.8125 L1894.2813,940.6563 Q1894.2813,939.3281 1894.8984,938.1797 Q1895.5156,937.0313 1896.6094,936.4141 Q1897.7031,935.7969 1898.9375,935.7969 Q1899.6719,935.7969 1900.3203,935.9609 Q1900.9688,936.125 1901.5156,936.4844 Z " fill="#000000"/><text fill="#000000" font-family="sans-serif" font-size="14" lengthAdjust="spacing" textLength="128" x="1919.25" y="946.3379">MarketOrderFactory</text><line style="stroke:#181818;stroke-width:0.5;" x1="1803.5" x2="2130.5" y1="956.6094" y2="956.6094"/><line style="stroke:#181818;stroke-width:0.5;" x1="1803.5" x2="2130.5" y1="964.6094" y2="964.6094"/><text fill="#000000" font-family="sans-serif" font-size="14" lengthAdjust="spacing" textLength="317" x="1808.5" y="983.1426">+createOrder(int, double, int) : unique_ptr&lt;Order&gt;</text></g><!--class LimitOrderFactory--><g id="elem_LimitOrderFactory"><rect codeLine="94" fill="#F1F1F1" height="65.6094" id="LimitOrderFactory" rx="2.5" ry="2.5" style="stroke:#181818;stroke-width:0.5;" width="329" x="1438.5" y="924.6094"/><ellipse cx="1541.75" cy="940.6094" fill="#C2C2C2" rx="11" ry="11" style="stroke:#181818;stroke-width:1.0;"/><path d="M1544.5156,936.4844 Q1544.6719,936.2656 1544.8594,936.1563 Q1545.0469,936.0469 1545.2656,936.0469 Q1545.6406,936.0469 1545.875,936.3047 Q1546.1094,936.5625 1546.1094,937.1719 L1546.1094,938.625 Q1546.1094,939.2344 1545.875,939.5 Q1545.6406,939.7656 1545.2656,939.7656 Q1544.9219,939.7656 1544.7188,939.5625 Q1544.5156,939.375 1544.4063,938.8594 Q1544.3594,938.5 1544.1719,938.3125 Q1543.8438,937.9375 1543.2344,937.7188 Q1542.625,937.5 1542,937.5 Q1541.2344,937.5 1540.6016,937.8281 Q1539.9688,938.1563 1539.4766,938.9063 Q1538.9844,939.6563 1538.9844,940.6875 L1538.9844,941.7813 Q1538.9844,943.0156 1539.875,943.8359 Q1540.7656,944.6563 1542.3594,944.6563 Q1543.2969,944.6563 1543.9531,944.4063 Q1544.3438,944.25 1544.7656,943.8125 Q1545.0313,943.5469 1545.1797,943.4688 Q1545.3281,943.3906 1545.5313,943.3906 Q1545.8594,943.3906 1546.1172,943.6484 Q1546.375,943.9063 1546.375,944.25 Q1546.375,944.5938 1546.0313,945 Q1545.5313,945.5781 1544.7344,945.9063 Q1543.6563,946.3594 1542.3594,946.3594 Q1540.8438,946.3594 1539.6406,945.7344 Q1538.6563,945.2344 1537.9688,944.1641 Q1537.2813,943.0938 1537.2813,941.8125 L1537.2813,940.6563 Q1537.2813,939.3281 1537.8984,938.1797 Q1538.5156,937.0313 1539.6094,936.4141 Q1540.7031,935.7969 1541.9375,935.7969 Q1542.6719,935.7969 1543.3203,935.9609 Q1543.9688,936.125 1544.5156,936.4844 Z " fill="#000000"/><text fill="#000000" font-family="sans-serif" font-size="14" lengthAdjust="spacing" textLength="114" x="1562.25" y="946.3379">LimitOrderFactory</text><line style="stroke:#181818;stroke-width:0.5;" x1="1439.5" x2="1766.5" y1="956.6094" y2="956.6094"/><line style="stroke:#181818;stroke-width:0.5;" x1="1439.5" x2="1766.5" y1="964.6094" y2="964.6094"/><text fill="#000000" font-family="sans-serif" font-size="14" lengthAdjust="spacing" textLength="317" x="1444.5" y="983.1426">+createOrder(int, double, int) : unique_ptr&lt;Order&gt;</text></g><!--link TraderException to Trader--><g id="link_TraderException_Trader"><path codeLine="99" d="M965,128.7894 C965,145.8194 965,160.6294 965,182.4194 " fill="none" id="TraderException-to-Trader" style="stroke:#181818;stroke-width:1.0;"/><polygon fill="#181818" points="965,188.4194,969,179.4194,965,183.4194,961,179.4194,965,188.4194" style="stroke:#181818;stroke-width:1.0;"/></g><!--link Order to OrderMatchingStrategy--><g id="link_Order_OrderMatchingStrategy"><path codeLine="100" d="M548.69,682.6094 C584.85,682.6094 614.54,682.6094 656.86,682.6094 " fill="none" id="Order-to-OrderMatchingStrategy" style="stroke:#181818;stroke-width:1.0;"/><polygon fill="#181818" points="668.86,682.6094,662.86,678.6094,656.86,682.6094,662.86,686.6094,668.86,682.6094" style="stroke:#181818;stroke-width:1.0;"/></g><!--reverse link OrderMatchingStrategy to OrderBook--><g id="link_OrderMatchingStrategy_OrderBook"><path codeLine="101" d="M753.5,727.3394 C753.5,767.9894 753.5,826.0794 753.5,880.4494 " fill="none" id="OrderMatchingStrategy-backto-OrderBook" style="stroke:#181818;stroke-width:1.0;"/><polygon fill="none" points="753.5,715.3394,749.5,721.3394,753.5,727.3394,757.5,721.3394,753.5,715.3394" style="stroke:#181818;stroke-width:1.0;"/></g><!--reverse link OrderMatchingStrategy to PriceTimeOrderMatchingStrategy--><g id="link_OrderMatchingStrategy_PriceTimeOrderMatchingStrategy"><path codeLine="102" d="M1036,733.3394 C1036,786.2894 1036,871.2294 1036,924.2594 " fill="none" id="OrderMatchingStrategy-backto-PriceTimeOrderMatchingStrategy" style="stroke:#181818;stroke-width:1.0;"/><polygon fill="none" points="1036,715.3394,1030,733.3394,1042,733.3394,1036,715.3394" style="stroke:#181818;stroke-width:1.0;"/></g><!--reverse link Trader to OrderBook--><g id="link_Trader_OrderBook"><path codeLine="103" d="M787.91,336.6094 C694.72,336.6094 608.75,336.6094 608.75,336.6094 C608.75,336.6094 608.75,714.2194 608.75,880.5294 " fill="none" id="Trader-backto-OrderBook" style="stroke:#181818;stroke-width:1.0;"/><polygon fill="none" points="799.91,336.6094,793.91,332.6094,787.91,336.6094,793.91,340.6094,799.91,336.6094" style="stroke:#181818;stroke-width:1.0;"/></g><!--reverse link Trader to Stock--><g id="link_Trader_Stock"><path codeLine="104" d="M1020,495.9894 C1020,568.1494 1020,627.6094 1020,627.6094 C1020,627.6094 1146.67,627.6094 1234,627.6094 " fill="none" id="Trader-backto-Stock" style="stroke:#181818;stroke-width:1.0;"/><polygon fill="#181818" points="1020,483.9894,1016,489.9894,1020,495.9894,1024,489.9894,1020,483.9894" style="stroke:#181818;stroke-width:1.0;"/></g><!--reverse link Trader to Order--><g id="link_Trader_Order"><path codeLine="105" d="M910,495.7594 C910,544.5494 910,574.6094 910,574.6094 C910,574.6094 688.82,574.6094 548.63,574.6094 " fill="none" id="Trader-backto-Order" style="stroke:#181818;stroke-width:1.0;"/><polygon fill="none" points="910,483.7594,906,489.7594,910,495.7594,914,489.7594,910,483.7594" style="stroke:#181818;stroke-width:1.0;"/></g><!--reverse link Trader to OrderFactory--><g id="link_Trader_OrderFactory"><path codeLine="106" d="M1142.13,336.6094 C1331.17,336.6094 1603,336.6094 1603,336.6094 C1603,336.6094 1603,562.5094 1603,648.9794 " fill="none" id="Trader-backto-OrderFactory" style="stroke:#181818;stroke-width:1.0;"/><polygon fill="none" points="1130.13,336.6094,1136.13,340.6094,1142.13,336.6094,1136.13,332.6094,1130.13,336.6094" style="stroke:#181818;stroke-width:1.0;"/></g><!--reverse link Order to OrderType--><g id="link_Order_OrderType"><path codeLine="107" d="M334.25,832.8494 C334.25,885.3094 334.25,920.6094 334.25,920.6094 C334.25,920.6094 323.22,920.6094 309.61,920.6094 " fill="none" id="Order-backto-OrderType" style="stroke:#181818;stroke-width:1.0;"/><polygon fill="#181818" points="334.25,820.8494,330.25,826.8494,334.25,832.8494,338.25,826.8494,334.25,820.8494" style="stroke:#181818;stroke-width:1.0;"/></g><!--reverse link OrderBook to Order--><g id="link_OrderBook_Order"><path codeLine="108" d="M534,898.6094 C523.25,898.6094 528.5,898.6094 528.5,898.6094 C528.5,898.6094 528.5,863.0494 528.5,820.7494 " fill="none" id="OrderBook-backto-Order" style="stroke:#181818;stroke-width:1.0;"/><polygon fill="none" points="546,898.6094,540,894.6094,534,898.6094,540,902.6094,546,898.6094" style="stroke:#181818;stroke-width:1.0;"/></g><!--reverse link Order to MarketOrder--><g id="link_Order_MarketOrder"><path codeLine="109" d="M428,838.6694 C428,877.3894 428,898.0294 428,924.3394 " fill="none" id="Order-backto-MarketOrder" style="stroke:#181818;stroke-width:1.0;"/><polygon fill="none" points="428,820.6694,422,838.6694,434,838.6694,428,820.6694" style="stroke:#181818;stroke-width:1.0;"/></g><!--reverse link Order to LimitOrder--><g id="link_Order_LimitOrder"><path codeLine="110" d="M305.19,682.6094 C204.22,682.6094 90,682.6094 90,682.6094 C90,682.6094 90,851.2994 90,924.4394 " fill="none" id="Order-backto-LimitOrder" style="stroke:#181818;stroke-width:1.0;"/><polygon fill="none" points="323.19,682.6094,305.19,676.6094,305.19,688.6094,323.19,682.6094" style="stroke:#181818;stroke-width:1.0;"/></g><!--reverse link OrderFactory to MarketOrderFactory--><g id="link_OrderFactory_MarketOrderFactory"><path codeLine="111" d="M1785.69,682.6094 C1882.08,682.6094 1967,682.6094 1967,682.6094 C1967,682.6094 1967,851.2994 1967,924.4394 " fill="none" id="OrderFactory-backto-MarketOrderFactory" style="stroke:#181818;stroke-width:1.0;"/><polygon fill="none" points="1767.69,682.6094,1785.69,688.6094,1785.69,676.6094,1767.69,682.6094" style="stroke:#181818;stroke-width:1.0;"/></g><!--reverse link OrderFactory to LimitOrderFactory--><g id="link_OrderFactory_LimitOrderFactory"><path codeLine="112" d="M1603,733.3394 C1603,786.2894 1603,871.2294 1603,924.2594 " fill="none" id="OrderFactory-backto-LimitOrderFactory" style="stroke:#181818;stroke-width:1.0;"/><polygon fill="none" points="1603,715.3394,1597,733.3394,1609,733.3394,1603,715.3394" style="stroke:#181818;stroke-width:1.0;"/></g><!--SRC=[lLN9Rjim4BthAtXgPJi2UWw20CrIm43S1KuFFHcqnCg49T8XHstTvTyx758I9Ta12WGzINhpPlWuc-nUgWCtl6QLL0AE1y6qWPrER6TOQQNpdT6rO60Q4LdoYblx5i38RGDYcMkrbZy5UvCa8A4IxD7mGggIhOyMHCrk7PtTILwYSvAyze10IDZSo0D8hLX2GSbL6FOhOInZijZakb60m2MJ2W8OVIYEwYwPHIcg9CI2plSMiMyY1sskrkxxcapQOEXttC5797o8FkSzuKRhVMjrxv4f2cjtt8XYSm1pHSnhTyI2RPjZIYTUE8apnzUo89CLLNNE1kxMQQ6RRIKkMFj4rfHQ2bZUfRCk1uIG14ie5iF2UPMlo8KN1IdnUiRn2VJHXadyaoJYHovymNobxhjlNx9QMClBGKqMxFkEGoiEBCjHrTm5yoMduC5zMi-3aRc3V5929k4zybBF6YKPFZg7aClnpSXjDXHNjYwp_fHE6sKjQACYcSsW_oRgClRKS8LZS8nO834jmEi3Okvz0trFqUY5Tdl4zq597N12BwPUedLPZFjWSf60VmgQnlp7LXWPEcaBXbtJv6BW5kTnA6wetSRcxgsBu7f8DNNlHDcz-Vo5uMDz__30HjcdUVGLsFhHV6u4tG8m74JPJVWA9to7oLi7VDvE05dJIPJ1NMiE-IwQhiw0XLVGwKjdmnvipqfFAuYJ4TrqvGwBU7JhaOZpWttnpD1F3wHESUN_xoUlkDc75g5ZpdTxv_8WQ_bl7l5k3pwv4NWtNtJQhD6QTI4Q9PyQ4Oa_AVd5OlPtUe6G_IzrwVwM610tSZBUq5bs7RPsShhgywmINo7psJl3qLdMp-KPpjLl93tVOK7SA5m0vmZINs72OXEapHxpMiYtNqZz1kaS0eyqHeMDuRusoU2CiK_0Jv0crVqB]--></g></svg>