<?xml version="1.0" encoding="us-ascii" standalone="no"?><svg xmlns="http://www.w3.org/2000/svg" xmlns:xlink="http://www.w3.org/1999/xlink" contentStyleType="text/css" height="527px" preserveAspectRatio="none" style="width:439px;height:527px;background:#FFFFFF;" version="1.1" viewBox="0 0 439 527" width="439px" zoomAndPan="magnify"><defs/><g><text fill="#000000" font-family="sans-serif" font-size="14" font-weight="bold" lengthAdjust="spacing" textLength="274" x="83.5" y="29.5332">User authentication Sequence Diagram</text><rect fill="#FFFFFF" height="373.7031" style="stroke:#181818;stroke-width:1.0;" width="10" x="36.5" y="108.5703"/><rect fill="#FFFFFF" height="372.7031" style="stroke:#181818;stroke-width:1.0;" width="10" x="207.5" y="108.5703"/><rect fill="#FFFFFF" height="205.9453" style="stroke:#181818;stroke-width:1.0;" width="10" x="342.5" y="229.9766"/><rect fill="none" height="185.9453" style="stroke:#000000;stroke-width:1.5;" width="422" x="10" y="288.3281"/><line style="stroke:#181818;stroke-width:0.5;stroke-dasharray:5.0,5.0;" x1="41" x2="41" y1="76.2188" y2="491.2734"/><line style="stroke:#181818;stroke-width:0.5;stroke-dasharray:5.0,5.0;" x1="212.5" x2="212.5" y1="76.2188" y2="491.2734"/><line style="stroke:#181818;stroke-width:0.5;stroke-dasharray:5.0,5.0;" x1="347" x2="347" y1="76.2188" y2="491.2734"/><rect fill="#E3E3E3" height="31.6094" rx="2.5" ry="2.5" style="stroke:#181818;stroke-width:0.5;" width="43" x="20" y="43.6094"/><text fill="#000000" font-family="sans-serif" font-size="14" lengthAdjust="spacing" textLength="29" x="27" y="65.1426">User</text><rect fill="#E3E3E3" height="31.6094" rx="2.5" ry="2.5" style="stroke:#181818;stroke-width:0.5;" width="43" x="20" y="490.2734"/><text fill="#000000" font-family="sans-serif" font-size="14" lengthAdjust="spacing" textLength="29" x="27" y="511.8066">User</text><rect fill="#E3E3E3" height="31.6094" rx="2.5" ry="2.5" style="stroke:#181818;stroke-width:0.5;" width="82" x="171.5" y="43.6094"/><text fill="#000000" font-family="sans-serif" font-size="14" lengthAdjust="spacing" textLength="68" x="178.5" y="65.1426">LoginPage</text><rect fill="#E3E3E3" height="31.6094" rx="2.5" ry="2.5" style="stroke:#181818;stroke-width:0.5;" width="82" x="171.5" y="490.2734"/><text fill="#000000" font-family="sans-serif" font-size="14" lengthAdjust="spacing" textLength="68" x="178.5" y="511.8066">LoginPage</text><rect fill="#E3E3E3" height="31.6094" rx="2.5" ry="2.5" style="stroke:#181818;stroke-width:0.5;" width="149" x="273" y="43.6094"/><text fill="#000000" font-family="sans-serif" font-size="14" lengthAdjust="spacing" textLength="135" x="280" y="65.1426">authenticationSystem</text><rect fill="#E3E3E3" height="31.6094" rx="2.5" ry="2.5" style="stroke:#181818;stroke-width:0.5;" width="149" x="273" y="490.2734"/><text fill="#000000" font-family="sans-serif" font-size="14" lengthAdjust="spacing" textLength="135" x="280" y="511.8066">authenticationSystem</text><rect fill="#FFFFFF" height="373.7031" style="stroke:#181818;stroke-width:1.0;" width="10" x="36.5" y="108.5703"/><rect fill="#FFFFFF" height="372.7031" style="stroke:#181818;stroke-width:1.0;" width="10" x="207.5" y="108.5703"/><rect fill="#FFFFFF" height="205.9453" style="stroke:#181818;stroke-width:1.0;" width="10" x="342.5" y="229.9766"/><polygon fill="#181818" points="195.5,104.5703,205.5,108.5703,195.5,112.5703,199.5,108.5703" style="stroke:#181818;stroke-width:1.0;"/><line style="stroke:#181818;stroke-width:1.0;" x1="46.5" x2="201.5" y1="108.5703" y2="108.5703"/><text fill="#000000" font-family="sans-serif" font-size="13" lengthAdjust="spacing" textLength="83" x="53.5" y="103.7139">loginRequest()</text><polygon fill="#181818" points="57.5,134.9219,47.5,138.9219,57.5,142.9219,53.5,138.9219" style="stroke:#181818;stroke-width:1.0;"/><line style="stroke:#181818;stroke-width:1.0;" x1="51.5" x2="206.5" y1="138.9219" y2="138.9219"/><text fill="#000000" font-family="sans-serif" font-size="13" lengthAdjust="spacing" textLength="77" x="63.5" y="134.0654">enterDetails()</text><polygon fill="#181818" points="195.5,165.2734,205.5,169.2734,195.5,173.2734,199.5,169.2734" style="stroke:#181818;stroke-width:1.0;"/><line style="stroke:#181818;stroke-width:1.0;" x1="46.5" x2="201.5" y1="169.2734" y2="169.2734"/><text fill="#000000" font-family="sans-serif" font-size="13" lengthAdjust="spacing" textLength="31" x="53.5" y="164.417">email</text><polygon fill="#181818" points="195.5,195.625,205.5,199.625,195.5,203.625,199.5,199.625" style="stroke:#181818;stroke-width:1.0;"/><line style="stroke:#181818;stroke-width:1.0;" x1="46.5" x2="201.5" y1="199.625" y2="199.625"/><text fill="#000000" font-family="sans-serif" font-size="13" lengthAdjust="spacing" textLength="55" x="53.5" y="194.7686">password</text><polygon fill="#181818" points="330.5,225.9766,340.5,229.9766,330.5,233.9766,334.5,229.9766" style="stroke:#181818;stroke-width:1.0;"/><line style="stroke:#181818;stroke-width:1.0;" x1="217.5" x2="336.5" y1="229.9766" y2="229.9766"/><text fill="#000000" font-family="sans-serif" font-size="13" lengthAdjust="spacing" textLength="106" x="224.5" y="225.1201">authenticateUser()</text><line style="stroke:#181818;stroke-width:1.0;" x1="352.5" x2="394.5" y1="260.3281" y2="260.3281"/><line style="stroke:#181818;stroke-width:1.0;" x1="394.5" x2="394.5" y1="260.3281" y2="273.3281"/><line style="stroke:#181818;stroke-width:1.0;" x1="353.5" x2="394.5" y1="273.3281" y2="273.3281"/><polygon fill="#181818" points="363.5,269.3281,353.5,273.3281,363.5,277.3281,359.5,273.3281" style="stroke:#181818;stroke-width:1.0;"/><text fill="#000000" font-family="sans-serif" font-size="13" lengthAdjust="spacing" textLength="67" x="359.5" y="255.4717">validate info</text><path d="M10,288.3281 L168,288.3281 L168,296.6797 L158,306.6797 L10,306.6797 L10,288.3281 " fill="#EEEEEE" style="stroke:#000000;stroke-width:1.5;"/><rect fill="none" height="185.9453" style="stroke:#000000;stroke-width:1.5;" width="422" x="10" y="288.3281"/><text fill="#000000" font-family="sans-serif" font-size="13" font-weight="bold" lengthAdjust="spacing" textLength="69" x="25" y="302.8232">Alternative</text><text fill="#000000" font-family="sans-serif" font-size="11" font-weight="bold" lengthAdjust="spacing" textLength="83" x="183" y="301.7471">[if valid details]</text><polygon fill="#181818" points="228.5,325.0313,218.5,329.0313,228.5,333.0313,224.5,329.0313" style="stroke:#181818;stroke-width:1.0;"/><line style="stroke:#181818;stroke-width:1.0;stroke-dasharray:2.0,2.0;" x1="222.5" x2="341.5" y1="329.0313" y2="329.0313"/><text fill="#000000" font-family="sans-serif" font-size="13" lengthAdjust="spacing" textLength="55" x="234.5" y="324.1748">Accepted</text><polygon fill="#181818" points="57.5,355.3828,47.5,359.3828,57.5,363.3828,53.5,359.3828" style="stroke:#181818;stroke-width:1.0;"/><line style="stroke:#181818;stroke-width:1.0;" x1="51.5" x2="206.5" y1="359.3828" y2="359.3828"/><text fill="#000000" font-family="sans-serif" font-size="13" lengthAdjust="spacing" textLength="90" x="63.5" y="354.5264">Login Accepted</text><polygon fill="#181818" points="57.5,385.7344,47.5,389.7344,57.5,393.7344,53.5,389.7344" style="stroke:#181818;stroke-width:1.0;"/><line style="stroke:#181818;stroke-width:1.0;" x1="51.5" x2="206.5" y1="389.7344" y2="389.7344"/><text fill="#000000" font-family="sans-serif" font-size="13" lengthAdjust="spacing" textLength="137" x="63.5" y="384.8779">Redirect to Target Page</text><line style="stroke:#000000;stroke-width:1.0;stroke-dasharray:2.0,2.0;" x1="10" x2="432" y1="398.7344" y2="398.7344"/><text fill="#000000" font-family="sans-serif" font-size="11" font-weight="bold" lengthAdjust="spacing" textLength="94" x="15" y="410.1533">[not valid details]</text><polygon fill="#181818" points="228.5,431.9219,218.5,435.9219,228.5,439.9219,224.5,435.9219" style="stroke:#181818;stroke-width:1.0;"/><line style="stroke:#181818;stroke-width:1.0;stroke-dasharray:2.0,2.0;" x1="222.5" x2="346.5" y1="435.9219" y2="435.9219"/><text fill="#000000" font-family="sans-serif" font-size="13" lengthAdjust="spacing" textLength="51" x="234.5" y="431.0654">Rejected</text><polygon fill="#181818" points="57.5,462.2734,47.5,466.2734,57.5,470.2734,53.5,466.2734" style="stroke:#181818;stroke-width:1.0;"/><line style="stroke:#181818;stroke-width:1.0;" x1="51.5" x2="206.5" y1="466.2734" y2="466.2734"/><text fill="#000000" font-family="sans-serif" font-size="13" lengthAdjust="spacing" textLength="86" x="63.5" y="461.417">Login Rejected</text><!--SRC=[ZP8nJyCm48Lt_ueROK1Ype1KgGiIIAY52J4O-pKzSEnWNuhAhyTEQPgAbEB9ldlttJtRwPrzgwDkoB67R5jGYB8EAWs9- -23MSVGW2Hs66MCqodDH2A_Te9R4_oIlq3NIf6mED1JGYJToHfUs6ZXu6c9ZmxUWEQiwqnHgbTTtT1TgDa_w1eLkR9T56MIYqkbZV16omvuE0q5QjWLJX5Lb5iYpY6QNSg8YIPeScugqMPRdo7QO-onZ-Ks2Pfg74L1ZQUTgb1JmTFuZNPi2ulzAYXLnz2rD7FPci-w3UYmddcravFTkNvH9JpTRsoOAfePWrPW-ufVbva5VUoyR07B4KP80ZtgM4EeVv- -02w1V93ZATL-_dyDki1RnlzCK9R5tzUzrvqsDI3XhHhX3h_hN0_r3G00]--></g></svg>